<svg fill="#FA5252" xmlns="http://www.w3.org/2000/svg"  viewBox="0 0 50 50" width="50px" height="50px"><path d="M 25 3.0664062 L 24.5 3.3535156 L 8.5 12.583984 L 8 12.871094 L 8 13.449219 L 8 15.759766 L 8 16.335938 L 8.4980469 16.625 L 10.050781 17.525391 L 12.003906 38.945312 L 12.050781 39.462891 L 12.5 39.720703 L 24.5 46.646484 L 25 46.933594 L 25.5 46.646484 L 37.5 39.722656 L 37.949219 39.462891 L 37.996094 38.947266 L 39.949219 17.525391 L 41.501953 16.623047 L 42 16.335938 L 42 15.759766 L 42 13.449219 L 42 12.871094 L 41.5 12.582031 L 25.5 3.3535156 L 25 3.0664062 z M 25 4.5078125 L 40.501953 13.451172 L 25 22.402344 L 9.4980469 13.451172 L 19.748047 7.5371094 L 19.748047 11.720703 A 0.250025 0.250025 0 0 0 19.873047 11.9375 L 21.873047 13.091797 A 0.250025 0.250025 0 0 0 22.125 13.091797 L 23.998047 12.009766 L 25.748047 13.019531 L 25.748047 15.185547 A 0.250025 0.250025 0 0 0 25.873047 15.402344 L 27.873047 16.556641 A 0.250025 0.250025 0 0 0 28.125 16.556641 L 30.125 15.402344 A 0.250025 0.250025 0 0 0 30.25 15.185547 L 30.248047 10.566406 A 0.250025 0.250025 0 0 0 30.123047 10.349609 L 22.501953 5.9492188 L 25 4.5078125 z M 22.001953 6.2382812 L 29.498047 10.566406 L 27.998047 11.431641 L 20.501953 7.1035156 L 22.001953 6.2382812 z M 20.248047 7.5351562 L 27.748047 11.865234 L 27.748047 15.908203 L 26.248047 15.041016 L 26.248047 12.876953 A 0.250025 0.250025 0 0 0 26.125 12.660156 L 24.125 11.503906 A 0.250025 0.250025 0 0 0 24.103516 11.492188 L 22.125 10.349609 A 0.250025 0.250025 0 0 0 21.980469 10.316406 A 0.250025 0.250025 0 0 0 21.748047 10.566406 L 21.748047 12.443359 L 20.248047 11.576172 L 20.248047 7.5351562 z M 22.248047 11 L 23.498047 11.720703 L 22.248047 12.443359 L 22.248047 11 z M 29.75 11 L 29.75 15.041016 L 28.248047 15.910156 L 28.248047 11.865234 L 29.75 11 z M 9.25 13.882812 L 24.75 22.835938 L 24.75 24.566406 L 11.136719 16.710938 A 0.250025 0.250025 0 0 0 11.125 16.703125 L 9.25 15.615234 L 9.25 13.882812 z M 40.75 13.882812 L 40.75 15.615234 L 38.875 16.703125 A 0.250025 0.250025 0 0 0 38.853516 16.716797 L 25.25 24.566406 L 25.25 22.835938 L 40.75 13.882812 z M 11.291016 17.376953 L 24.75 25.144531 L 24.75 45.347656 L 13.236328 38.703125 L 11.291016 17.376953 z M 38.708984 17.376953 L 36.763672 38.705078 L 25.25 45.347656 L 25.25 25.144531 L 38.708984 17.376953 z"/></svg>